<svg version="1.1" id="Layer_1" xmlns="http://www.w3.org/2000/svg" xmlns:xlink="http://www.w3.org/1999/xlink" x="0px" y="0px"
	 width="100%" viewBox="0 0 396 396" enable-background="new 0 0 396 396" xml:space="preserve">
<path fill="#0D0B18" opacity="1.000000" stroke="none" 
	d="
M213.000000,397.000000 
	C142.022247,397.000000 71.544502,397.000000 1.033375,397.000000 
	C1.033375,265.063904 1.033375,133.127823 1.033375,1.095865 
	C132.894363,1.095865 264.788818,1.095865 396.841644,1.095865 
	C396.841644,132.999847 396.841644,264.999908 396.841644,397.000000 
	C335.794586,397.000000 274.647278,397.000000 213.000000,397.000000 
M281.243744,160.815201 
	C281.133453,160.535477 281.023163,160.255737 280.664856,159.132416 
	C280.746521,157.092865 280.828186,155.053299 281.405762,152.979446 
	C281.675507,152.833832 281.945282,152.688232 282.215057,152.542633 
	C281.803528,152.358673 281.392029,152.174698 281.318726,151.188065 
	C285.099762,151.188065 288.880798,151.188065 292.661835,151.188065 
	C292.841614,150.644699 293.021423,150.101349 293.201233,149.557983 
	C292.140076,148.970413 291.087372,147.891586 290.016449,147.873245 
	C281.743011,147.731644 273.466003,147.795242 265.022217,147.795242 
	C264.957001,148.738556 264.829163,149.907150 264.882385,149.915466 
	C268.770355,150.522232 272.672729,151.037003 277.054749,151.623520 
	C277.054749,161.742798 277.054749,171.942429 277.054749,182.180237 
	C280.489380,181.786072 280.489380,181.786072 281.242920,177.821121 
	C281.310242,177.715759 281.458099,177.551315 281.431396,177.514893 
	C281.288544,177.320114 281.102142,177.157288 280.688660,176.079010 
	C280.766541,171.059387 280.844421,166.039749 281.243744,160.815201 
M238.013931,250.790421 
	C239.698929,252.082932 241.890015,254.790512 242.974075,254.402786 
	C246.234268,253.236801 251.214111,254.187469 252.453415,248.379181 
	C259.951447,244.181259 263.197815,237.273193 261.653656,228.801712 
	C260.235596,221.022247 255.383377,216.012756 247.857254,215.305161 
	C243.289276,214.875671 238.647964,215.225983 233.822250,215.225983 
	C233.822250,226.821472 233.822250,238.177963 233.822250,249.654892 
	C235.395340,249.810989 236.695847,249.940033 238.013931,250.790421 
M93.990776,233.285034 
	C92.768837,238.257263 91.623100,243.225800 94.999588,248.792252 
	C99.666069,249.148758 104.328896,249.566467 109.000023,249.845108 
	C114.013283,250.144180 118.449608,248.877960 120.404518,243.755112 
	C122.365807,238.615494 119.895851,234.833115 115.394241,231.870422 
	C119.132248,228.829834 120.834862,224.945618 118.799927,220.848068 
	C117.625374,218.483002 114.854820,215.713623 112.484207,215.378479 
	C106.840691,214.580658 101.007935,215.121399 94.714188,215.121399 
	C94.714188,221.431595 94.714188,227.221741 93.990776,233.285034 
M368.901428,239.272720 
	C359.515686,261.933960 344.147766,279.753357 324.288361,293.791626 
	C295.843231,313.898987 263.571167,322.684753 229.280777,324.836029 
	C200.145630,326.663849 171.423035,323.077179 143.051712,316.650055 
	C115.530708,310.415527 88.620094,302.418610 65.076279,286.051361 
	C40.811230,269.182709 25.562117,246.882721 23.949196,216.553467 
	C23.905045,215.723251 23.557631,214.909164 23.296350,213.867065 
	C22.674055,214.399033 22.288059,214.567505 22.272299,214.765442 
	C20.847334,232.664337 23.964001,249.604080 33.326977,265.103973 
	C46.732349,287.295807 67.087730,301.097778 90.317924,310.955566 
	C125.937813,326.070984 163.417816,333.255585 201.915695,335.043304 
	C236.827972,336.664520 270.703339,331.791107 302.299347,315.901611 
	C333.841309,300.039276 357.249146,276.504669 369.544678,242.848557 
	C370.304199,240.769608 370.743286,238.573608 371.331482,236.432068 
	C371.024445,236.319672 370.717438,236.207275 370.410400,236.094879 
	C369.982147,236.909866 369.553925,237.724838 368.901428,239.272720 
M363.827209,159.842102 
	C372.332703,175.038422 376.003387,191.482529 376.168030,208.874420 
	C376.752594,208.420471 377.015015,208.037796 377.057373,207.632156 
	C379.873688,180.660904 372.998871,156.389893 355.731873,135.516617 
	C329.781464,104.146355 295.471436,90.018059 255.421158,89.008095 
	C221.962128,88.164345 190.677765,97.247734 160.623917,111.237221 
	C154.253372,114.202591 153.539474,115.728371 154.686386,122.922005 
	C160.433533,120.409523 166.129242,117.735527 171.960617,115.400360 
	C207.327179,101.237839 243.591446,93.821526 281.621368,102.125679 
	C316.724609,109.790756 344.632050,128.049225 363.827209,159.842102 
M35.065765,165.580276 
	C33.096493,171.752609 31.131113,177.926224 29.133392,184.089325 
	C29.087791,184.230011 28.676210,184.252075 28.721106,184.237656 
	C29.420681,183.039185 30.366796,181.715118 31.017372,180.259018 
	C39.880810,160.420929 53.075996,143.820786 69.673241,130.049118 
	C117.090637,90.704201 171.828476,71.358963 233.364777,71.013779 
	C235.139679,71.003822 236.914688,71.012527 238.759842,71.012527 
	C239.233566,67.413612 239.633423,64.375809 240.133026,60.580193 
	C229.197327,61.153397 218.870972,61.238525 208.648346,62.311848 
	C170.557373,66.311195 135.000183,78.073875 102.127380,97.851570 
	C74.253937,114.621445 50.552643,135.500763 35.065765,165.580276 
M221.598892,181.249634 
	C228.472595,176.241318 228.336548,171.001205 221.099792,164.292633 
	C224.598206,161.545853 226.479355,157.835724 224.393402,153.816833 
	C223.117050,151.357773 220.279739,148.515121 217.786942,148.125458 
	C212.306213,147.268768 206.599197,147.859665 200.489853,147.859665 
	C200.489853,158.211304 200.719452,168.165665 200.382141,178.100769 
	C200.237762,182.353302 202.193497,183.481064 205.650574,183.228088 
	C210.761688,182.854111 215.851746,182.192490 221.598892,181.249634 
M108.731514,180.498947 
	C109.568230,181.198822 110.404945,181.898682 112.095886,183.313080 
	C112.095886,176.968887 112.095886,172.028427 112.095886,166.726028 
	C114.873436,166.726028 117.339645,166.726425 119.805855,166.725967 
	C132.286819,166.723633 132.226944,166.724075 132.336288,179.383896 
	C132.346054,180.515427 133.798035,181.634506 134.580200,182.759369 
	C135.051651,182.475006 135.523087,182.190643 135.994537,181.906296 
	C135.994537,171.451828 136.040649,160.996796 135.913605,150.543869 
	C135.902542,149.632889 134.751968,148.735764 134.130692,147.832199 
	C133.559174,148.801422 132.540375,149.749954 132.494431,150.743484 
	C132.306686,154.803284 132.416168,158.876831 132.416168,162.783203 
	C125.242241,162.783203 118.845512,162.783203 112.106972,162.783203 
	C112.106972,157.703964 112.106972,152.937393 112.106972,148.170807 
	C111.579269,147.956329 111.051559,147.741837 110.523857,147.527359 
	C109.920990,148.754776 108.814758,149.974289 108.795288,151.210907 
	C108.646011,160.693176 108.708054,170.178787 108.731514,180.498947 
M202.576035,249.431107 
	C211.333603,247.124008 215.930237,240.998810 215.650085,232.009415 
	C215.368057,222.959747 210.516098,216.575012 202.198318,215.449203 
	C197.376465,214.796570 192.393997,215.330582 187.460968,215.330582 
	C187.460968,226.966156 187.460968,238.304276 187.460968,249.674210 
	C192.493286,249.674210 197.122742,249.674210 202.576035,249.431107 
M152.558014,246.760086 
	C145.488327,245.581940 142.400696,242.132874 142.097183,234.542435 
	C141.877609,229.051407 142.108963,223.543076 141.936157,218.048843 
	C141.904327,217.036545 140.900925,216.054794 140.345963,215.058945 
	C139.677719,215.949081 138.430710,216.841034 138.433487,217.729095 
	C138.454224,224.385880 138.356003,231.077927 139.007507,237.688721 
	C139.763504,245.359787 145.257492,249.921005 152.813904,250.025482 
	C160.431000,250.130798 166.089859,245.764099 166.943710,238.099396 
	C167.696762,231.339706 167.557907,224.469528 167.548996,217.648468 
	C167.547699,216.660858 166.071381,215.675156 165.277634,214.688568 
	C164.825470,214.982834 164.373322,215.277115 163.921158,215.571381 
	C163.921158,221.886139 164.126434,228.209274 163.868805,234.513504 
	C163.551834,242.270447 160.528549,245.592010 152.558014,246.760086 
M166.262512,149.024963 
	C161.708954,159.967697 157.155396,170.910446 152.601837,181.853180 
	C153.183365,182.229736 153.764908,182.606293 154.346451,182.982864 
	C155.574081,181.329971 156.892990,179.735870 158.005417,178.008774 
	C159.295120,176.006454 160.121536,172.389923 161.644012,172.103302 
	C165.979904,171.287064 170.776215,171.027878 174.962021,172.150391 
	C176.872940,172.662842 177.608032,177.047577 179.200516,179.462296 
	C180.079468,180.795044 181.629196,181.685440 182.876526,182.775238 
	C183.219269,182.413559 183.562012,182.051895 183.904755,181.690216 
	C179.587677,171.289627 175.251755,160.896774 170.969238,150.481979 
	C170.100388,148.369003 169.098267,146.876404 166.262512,149.024963 
M306.033295,215.483856 
	C304.389282,216.347214 302.147644,216.795822 301.208710,218.148575 
	C297.846466,222.992920 294.925415,228.143539 291.911682,233.057358 
	C286.147888,227.482620 285.256042,218.568771 277.531219,215.130661 
	C282.119080,226.657913 293.447510,235.416885 290.548584,250.155869 
	C292.221985,249.068878 293.358246,247.795471 293.202240,246.707321 
	C292.157471,239.419785 294.913239,233.454544 298.969818,227.718048 
	C301.554108,224.063538 303.684052,220.087723 306.033295,215.483856 
M248.063248,177.439102 
	C248.064606,168.805786 248.139160,160.171143 247.984406,151.540619 
	C247.962463,150.316910 246.824905,149.113220 246.203705,147.900253 
	C245.713089,149.099396 244.812714,150.293259 244.797211,151.498505 
	C244.681961,160.461548 244.674988,169.427948 244.821945,178.390213 
	C244.843353,179.695572 245.863205,180.984558 246.421051,182.281128 
	C246.967697,180.996902 247.514343,179.712692 248.063248,177.439102 
M281.484985,184.569504 
	C281.484985,184.569504 281.433350,184.475677 281.484985,184.569504 
z"/>
<path fill="#F5F5F6" opacity="1.000000" stroke="none" 
	d="
M369.013550,238.906265 
	C369.553925,237.724838 369.982147,236.909866 370.410400,236.094879 
	C370.717438,236.207275 371.024445,236.319672 371.331482,236.432068 
	C370.743286,238.573608 370.304199,240.769608 369.544678,242.848557 
	C357.249146,276.504669 333.841309,300.039276 302.299347,315.901611 
	C270.703339,331.791107 236.827972,336.664520 201.915695,335.043304 
	C163.417816,333.255585 125.937813,326.070984 90.317924,310.955566 
	C67.087730,301.097778 46.732349,287.295807 33.326977,265.103973 
	C23.964001,249.604080 20.847334,232.664337 22.272299,214.765442 
	C22.288059,214.567505 22.674055,214.399033 23.296350,213.867065 
	C23.557631,214.909164 23.905045,215.723251 23.949196,216.553467 
	C25.562117,246.882721 40.811230,269.182709 65.076279,286.051361 
	C88.620094,302.418610 115.530708,310.415527 143.051712,316.650055 
	C171.423035,323.077179 200.145630,326.663849 229.280777,324.836029 
	C263.571167,322.684753 295.843231,313.898987 324.288361,293.791626 
	C344.147766,279.753357 359.515686,261.933960 369.013550,238.906265 
z"/>
<path fill="#F5F5F5" opacity="1.000000" stroke="none" 
	d="
M363.634705,159.524628 
	C344.632050,128.049225 316.724609,109.790756 281.621368,102.125679 
	C243.591446,93.821526 207.327179,101.237839 171.960617,115.400360 
	C166.129242,117.735527 160.433533,120.409523 154.686386,122.922005 
	C153.539474,115.728371 154.253372,114.202591 160.623917,111.237221 
	C190.677765,97.247734 221.962128,88.164345 255.421158,89.008095 
	C295.471436,90.018059 329.781464,104.146355 355.731873,135.516617 
	C372.998871,156.389893 379.873688,180.660904 377.057373,207.632156 
	C377.015015,208.037796 376.752594,208.420471 376.168030,208.874420 
	C376.003387,191.482529 372.332703,175.038422 363.634705,159.524628 
z"/>
<path fill="#F4F4F5" opacity="1.000000" stroke="none" 
	d="
M35.232239,165.243912 
	C50.552643,135.500763 74.253937,114.621445 102.127380,97.851570 
	C135.000183,78.073875 170.557373,66.311195 208.648346,62.311848 
	C218.870972,61.238525 229.197327,61.153397 240.133026,60.580193 
	C239.633423,64.375809 239.233566,67.413612 238.759842,71.012527 
	C236.914688,71.012527 235.139679,71.003822 233.364777,71.013779 
	C171.828476,71.358963 117.090637,90.704201 69.673241,130.049118 
	C53.075996,143.820786 39.880810,160.420929 31.017372,180.259018 
	C30.366796,181.715118 29.420681,183.039185 28.721106,184.237656 
	C28.676210,184.252075 29.087791,184.230011 29.133392,184.089325 
	C31.131113,177.926224 33.096493,171.752609 35.232239,165.243912 
z"/>
<path fill="#ECEBEF" opacity="1.000000" stroke="none" 
	d="
M221.274841,181.451477 
	C215.851746,182.192490 210.761688,182.854111 205.650574,183.228088 
	C202.193497,183.481064 200.237762,182.353302 200.382141,178.100769 
	C200.719452,168.165665 200.489853,158.211304 200.489853,147.859665 
	C206.599197,147.859665 212.306213,147.268768 217.786942,148.125458 
	C220.279739,148.515121 223.117050,151.357773 224.393402,153.816833 
	C226.479355,157.835724 224.598206,161.545853 221.099792,164.292633 
	C228.336548,171.001205 228.472595,176.241318 221.274841,181.451477 
M204.065536,178.337738 
	C208.937729,178.537659 213.896149,179.323105 218.636047,178.624939 
	C220.331009,178.375290 222.721207,174.444061 222.560852,172.365509 
	C222.400848,170.291275 219.703720,167.161758 217.659317,166.744019 
	C213.388428,165.871307 208.814880,166.479721 204.038239,166.479721 
	C204.038239,170.433777 204.038239,173.902847 204.065536,178.337738 
M208.509216,163.494766 
	C211.156036,163.442505 213.826309,163.592361 216.443985,163.288834 
	C220.034119,162.872528 221.577362,160.223663 221.516937,156.994568 
	C221.455978,153.736298 219.747208,151.200699 216.126129,151.025360 
	C212.217102,150.836075 208.291809,150.982513 204.043137,150.982513 
	C204.043137,154.454575 204.244492,157.420837 203.986725,160.346634 
	C203.727051,163.294067 205.230652,163.702896 208.509216,163.494766 
z"/>
<path fill="#EBEAED" opacity="1.000000" stroke="none" 
	d="
M94.714188,233.011902 
	C94.714188,227.221741 94.714188,221.431595 94.714188,215.121399 
	C101.007935,215.121399 106.840691,214.580658 112.484207,215.378479 
	C114.854820,215.713623 117.625374,218.483002 118.799927,220.848068 
	C120.834862,224.945618 119.132248,228.829834 115.394241,231.870422 
	C119.895851,234.833115 122.365807,238.615494 120.404518,243.755112 
	C118.449608,248.877960 114.013283,250.144180 109.000023,249.845108 
	C104.328896,249.566467 99.666069,249.148758 94.933762,247.931030 
	C94.816689,242.383850 94.765434,237.697876 94.714188,233.011902 
M98.150871,241.354584 
	C98.150871,242.962433 98.150871,244.570297 98.150871,246.743393 
	C102.369820,246.743393 106.400871,247.288177 110.181725,246.550522 
	C112.673439,246.064392 115.647995,244.222778 116.882736,242.101318 
	C118.399681,239.494995 117.435165,236.317062 113.527115,234.172546 
	C108.718468,234.449554 103.909813,234.726562 99.169899,234.999603 
	C99.044067,237.332428 98.946526,239.140915 98.150871,241.354584 
M102.730301,218.152649 
	C101.278656,218.932755 98.731316,219.539276 98.575218,220.524628 
	C98.049820,223.841064 98.375359,227.292313 98.375359,230.873795 
	C102.638618,230.873795 106.108154,230.936356 109.574455,230.857193 
	C113.510460,230.767334 115.791107,228.650131 115.962440,224.746887 
	C116.149376,220.488098 113.716026,218.377457 109.596252,218.156158 
	C107.616501,218.049820 105.625854,218.146515 102.730301,218.152649 
z"/>
<path fill="#E9E8EB" opacity="1.000000" stroke="none" 
	d="
M108.717979,180.081146 
	C108.708054,170.178787 108.646011,160.693176 108.795288,151.210907 
	C108.814758,149.974289 109.920990,148.754776 110.523857,147.527359 
	C111.051559,147.741837 111.579269,147.956329 112.106972,148.170807 
	C112.106972,152.937393 112.106972,157.703964 112.106972,162.783203 
	C118.845512,162.783203 125.242241,162.783203 132.416168,162.783203 
	C132.416168,158.876831 132.306686,154.803284 132.494431,150.743484 
	C132.540375,149.749954 133.559174,148.801422 134.130692,147.832199 
	C134.751968,148.735764 135.902542,149.632889 135.913605,150.543869 
	C136.040649,160.996796 135.994537,171.451828 135.994537,181.906296 
	C135.523087,182.190643 135.051651,182.475006 134.580200,182.759369 
	C133.798035,181.634506 132.346054,180.515427 132.336288,179.383896 
	C132.226944,166.724075 132.286819,166.723633 119.805855,166.725967 
	C117.339645,166.726425 114.873436,166.726028 112.095886,166.726028 
	C112.095886,172.028427 112.095886,176.968887 112.095886,183.313080 
	C110.404945,181.898682 109.568230,181.198822 108.717979,180.081146 
z"/>
<path fill="#E5E5E8" opacity="1.000000" stroke="none" 
	d="
M202.164124,249.552658 
	C197.122742,249.674210 192.493286,249.674210 187.460968,249.674210 
	C187.460968,238.304276 187.460968,226.966156 187.460968,215.330582 
	C192.393997,215.330582 197.376465,214.796570 202.198318,215.449203 
	C210.516098,216.575012 215.368057,222.959747 215.650085,232.009415 
	C215.930237,240.998810 211.333603,247.124008 202.164124,249.552658 
M191.105499,218.948441 
	C191.105499,228.035553 191.105499,237.122665 191.105499,246.640640 
	C193.296356,246.640640 195.254684,246.649460 197.212906,246.639160 
	C206.853790,246.588470 211.955505,241.692245 211.967331,232.485641 
	C211.979263,223.217453 206.946960,218.312576 197.319901,218.245926 
	C195.495102,218.233292 193.669556,218.331009 191.105499,218.948441 
z"/>
<path fill="#EDECEF" opacity="1.000000" stroke="none" 
	d="
M237.996353,250.069061 
	C236.695847,249.940033 235.395340,249.810989 233.822250,249.654892 
	C233.822250,238.177963 233.822250,226.821472 233.822250,215.225983 
	C238.647964,215.225983 243.289276,214.875671 247.857254,215.305161 
	C255.383377,216.012756 260.235596,221.022247 261.653656,228.801712 
	C263.197815,237.273193 259.951447,244.181259 251.875610,248.643784 
	C246.863983,249.295273 242.430161,249.682159 237.996353,250.069061 
M257.321198,238.341583 
	C260.965820,223.531967 252.937881,215.701660 237.386627,218.819138 
	C237.386627,228.044052 237.386627,237.251205 237.386627,246.590302 
	C245.144089,246.519287 253.103729,248.087585 257.321198,238.341583 
z"/>
<path fill="#E5E4E8" opacity="1.000000" stroke="none" 
	d="
M152.996490,246.747162 
	C160.528549,245.592010 163.551834,242.270447 163.868805,234.513504 
	C164.126434,228.209274 163.921158,221.886139 163.921158,215.571381 
	C164.373322,215.277115 164.825470,214.982834 165.277634,214.688568 
	C166.071381,215.675156 167.547699,216.660858 167.548996,217.648468 
	C167.557907,224.469528 167.696762,231.339706 166.943710,238.099396 
	C166.089859,245.764099 160.431000,250.130798 152.813904,250.025482 
	C145.257492,249.921005 139.763504,245.359787 139.007507,237.688721 
	C138.356003,231.077927 138.454224,224.385880 138.433487,217.729095 
	C138.430710,216.841034 139.677719,215.949081 140.345963,215.058945 
	C140.900925,216.054794 141.904327,217.036545 141.936157,218.048843 
	C142.108963,223.543076 141.877609,229.051407 142.097183,234.542435 
	C142.400696,242.132874 145.488327,245.581940 152.996490,246.747162 
z"/>
<path fill="#E7E6E9" opacity="1.000000" stroke="none" 
	d="
M166.422272,148.716141 
	C169.098267,146.876404 170.100388,148.369003 170.969238,150.481979 
	C175.251755,160.896774 179.587677,171.289627 183.904755,181.690216 
	C183.562012,182.051895 183.219269,182.413559 182.876526,182.775238 
	C181.629196,181.685440 180.079468,180.795044 179.200516,179.462296 
	C177.608032,177.047577 176.872940,172.662842 174.962021,172.150391 
	C170.776215,171.027878 165.979904,171.287064 161.644012,172.103302 
	C160.121536,172.389923 159.295120,176.006454 158.005417,178.008774 
	C156.892990,179.735870 155.574081,181.329971 154.346451,182.982864 
	C153.764908,182.606293 153.183365,182.229736 152.601837,181.853180 
	C157.155396,170.910446 161.708954,159.967697 166.422272,148.716141 
M174.474213,168.771942 
	C172.609802,163.519394 170.745392,158.266846 168.414246,151.699387 
	C165.758392,158.286301 163.695251,163.403214 161.477386,168.903900 
	C166.024338,168.903900 169.837540,168.903900 174.474213,168.771942 
z"/>
<path fill="#E5E5E6" opacity="1.000000" stroke="none" 
	d="
M280.909851,153.013748 
	C280.828186,155.053299 280.746521,157.092865 280.699646,159.816116 
	C280.797028,160.673248 280.859650,160.846680 280.922272,161.020126 
	C280.844421,166.039749 280.766541,171.059387 280.720581,176.789795 
	C280.808411,177.674133 280.864319,177.847656 280.920258,178.021194 
	C280.489380,181.786072 280.489380,181.786072 277.054749,182.180237 
	C277.054749,171.942429 277.054749,161.742798 277.054749,151.623520 
	C272.672729,151.037003 268.770355,150.522232 264.882385,149.915466 
	C264.829163,149.907150 264.957001,148.738556 265.022217,147.795242 
	C273.466003,147.795242 281.743011,147.731644 290.016449,147.873245 
	C291.087372,147.891586 292.140076,148.970413 293.201233,149.557983 
	C293.021423,150.101349 292.841614,150.644699 292.661835,151.188065 
	C288.880798,151.188065 285.099762,151.188065 281.028381,151.838043 
	C280.795319,152.663269 280.852570,152.838501 280.909851,153.013748 
z"/>
<path fill="#EAE9ED" opacity="1.000000" stroke="none" 
	d="
M306.025513,215.869919 
	C303.684052,220.087723 301.554108,224.063538 298.969818,227.718048 
	C294.913239,233.454544 292.157471,239.419785 293.202240,246.707321 
	C293.358246,247.795471 292.221985,249.068878 290.548584,250.155869 
	C293.447510,235.416885 282.119080,226.657913 277.531219,215.130661 
	C285.256042,218.568771 286.147888,227.482620 291.911682,233.057358 
	C294.925415,228.143539 297.846466,222.992920 301.208710,218.148575 
	C302.147644,216.795822 304.389282,216.347214 306.025513,215.869919 
z"/>
<path fill="#FEFEFD" opacity="1.000000" stroke="none" 
	d="
M248.062119,177.933777 
	C247.514343,179.712692 246.967697,180.996902 246.421051,182.281128 
	C245.863205,180.984558 244.843353,179.695572 244.821945,178.390213 
	C244.674988,169.427948 244.681961,160.461548 244.797211,151.498505 
	C244.812714,150.293259 245.713089,149.099396 246.203705,147.900253 
	C246.824905,149.113220 247.962463,150.316910 247.984406,151.540619 
	C248.139160,160.171143 248.064606,168.805786 248.062119,177.933777 
z"/>
<path fill="#07070A" opacity="1.000000" stroke="none" 
	d="
M238.005142,250.429749 
	C242.430161,249.682159 246.863983,249.295273 251.652649,248.895004 
	C251.214111,254.187469 246.234268,253.236801 242.974075,254.402786 
	C241.890015,254.790512 239.698929,252.082932 238.005142,250.429749 
z"/>
<path fill="#030208" opacity="1.000000" stroke="none" 
	d="
M94.352478,233.148468 
	C94.765434,237.697876 94.816689,242.383850 94.787277,247.529114 
	C91.623100,243.225800 92.768837,238.257263 94.352478,233.148468 
z"/>
<path fill="#010006" opacity="1.000000" stroke="none" 
	d="
M281.157806,152.996597 
	C280.852570,152.838501 280.795319,152.663269 280.859253,152.239380 
	C281.392029,152.174698 281.803528,152.358673 282.215057,152.542633 
	C281.945282,152.688232 281.675507,152.833832 281.157806,152.996597 
z"/>
<path fill="#010006" opacity="1.000000" stroke="none" 
	d="
M281.459167,184.522583 
	C281.433350,184.475677 281.484985,184.569504 281.459167,184.522583 
z"/>
<path fill="#010006" opacity="1.000000" stroke="none" 
	d="
M281.081604,177.921158 
	C280.864319,177.847656 280.808411,177.674133 280.841644,177.242004 
	C281.102142,177.157288 281.288544,177.320114 281.431396,177.514893 
	C281.458099,177.551315 281.310242,177.715759 281.081604,177.921158 
z"/>
<path fill="#010006" opacity="1.000000" stroke="none" 
	d="
M281.083008,160.917664 
	C280.859650,160.846680 280.797028,160.673248 280.823669,160.237915 
	C281.023163,160.255737 281.133453,160.535477 281.083008,160.917664 
z"/>
<path fill="#15131F" opacity="1.000000" stroke="none" 
	d="
M204.051880,177.854828 
	C204.038239,173.902847 204.038239,170.433777 204.038239,166.479721 
	C208.814880,166.479721 213.388428,165.871307 217.659317,166.744019 
	C219.703720,167.161758 222.400848,170.291275 222.560852,172.365509 
	C222.721207,174.444061 220.331009,178.375290 218.636047,178.624939 
	C213.896149,179.323105 208.937729,178.537659 204.051880,177.854828 
z"/>
<path fill="#100F19" opacity="1.000000" stroke="none" 
	d="
M208.021957,163.473999 
	C205.230652,163.702896 203.727051,163.294067 203.986725,160.346634 
	C204.244492,157.420837 204.043137,154.454575 204.043137,150.982513 
	C208.291809,150.982513 212.217102,150.836075 216.126129,151.025360 
	C219.747208,151.200699 221.455978,153.736298 221.516937,156.994568 
	C221.577362,160.223663 220.034119,162.872528 216.443985,163.288834 
	C213.826309,163.592361 211.156036,163.442505 208.021957,163.473999 
z"/>
<path fill="#191720" opacity="1.000000" stroke="none" 
	d="
M103.185219,218.151962 
	C105.625854,218.146515 107.616501,218.049820 109.596252,218.156158 
	C113.716026,218.377457 116.149376,220.488098 115.962440,224.746887 
	C115.791107,228.650131 113.510460,230.767334 109.574455,230.857193 
	C106.108154,230.936356 102.638618,230.873795 98.375359,230.873795 
	C98.375359,227.292313 98.049820,223.841064 98.575218,220.524628 
	C98.731316,219.539276 101.278656,218.932755 103.185219,218.151962 
z"/>
<path fill="#0F0D19" opacity="1.000000" stroke="none" 
	d="
M98.848984,240.949387 
	C98.946526,239.140915 99.044067,237.332428 99.169899,234.999603 
	C103.909813,234.726562 108.718468,234.449554 113.688187,234.810715 
	C113.708031,236.873810 113.309502,238.329437 113.475166,239.717743 
	C113.922386,243.465469 112.591064,244.825104 108.670296,245.208511 
	C104.290321,245.636841 101.597702,243.559189 98.848984,240.949387 
z"/>
<path fill="#212025" opacity="1.000000" stroke="none" 
	d="
M98.499924,241.151978 
	C101.597702,243.559189 104.290321,245.636841 108.670296,245.208511 
	C112.591064,244.825104 113.922386,243.465469 113.475166,239.717743 
	C113.309502,238.329437 113.708031,236.873810 113.995743,235.087692 
	C117.435165,236.317062 118.399681,239.494995 116.882736,242.101318 
	C115.647995,244.222778 112.673439,246.064392 110.181725,246.550522 
	C106.400871,247.288177 102.369820,246.743393 98.150871,246.743393 
	C98.150871,244.570297 98.150871,242.962433 98.499924,241.151978 
z"/>
<path fill="#110F1D" opacity="1.000000" stroke="none" 
	d="
M191.474915,218.663116 
	C193.669556,218.331009 195.495102,218.233292 197.319901,218.245926 
	C206.946960,218.312576 211.979263,223.217453 211.967331,232.485641 
	C211.955505,241.692245 206.853790,246.588470 197.212906,246.639160 
	C195.254684,246.649460 193.296356,246.640640 191.105499,246.640640 
	C191.105499,237.122665 191.105499,228.035553 191.474915,218.663116 
z"/>
<path fill="#110F1C" opacity="1.000000" stroke="none" 
	d="
M257.181335,238.720428 
	C253.103729,248.087585 245.144089,246.519287 237.386627,246.590302 
	C237.386627,237.251205 237.386627,228.044052 237.386627,218.819138 
	C252.937881,215.701660 260.965820,223.531967 257.181335,238.720428 
z"/>
<path fill="#161518" opacity="1.000000" stroke="none" 
	d="
M174.062469,168.837921 
	C169.837540,168.903900 166.024338,168.903900 161.477386,168.903900 
	C163.695251,163.403214 165.758392,158.286301 168.414246,151.699387 
	C170.745392,158.266846 172.609802,163.519394 174.062469,168.837921 
z"/>
</svg>